<svg width="310" height="299" viewBox="0 0 310 299" fill="none" xmlns="http://www.w3.org/2000/svg">
<path d="M71.0658 102.429C61.8149 113.79 56.8594 127.585 55.5974 139.965C27.7375 137.124 6 113.591 6 84.9815C6 54.4561 30.7457 29.7104 61.271 29.7104C89.8532 29.7104 113.368 51.406 116.246 79.2272C96.0002 80.8334 81.0621 90.1527 71.0658 102.429Z" stroke="white" stroke-width="12"/>
<path d="M304 85.9815C304 114.566 282.301 138.082 254.476 140.957C253.463 128.287 249.305 114.383 240.296 102.976C230.504 90.5798 215.372 81.6397 193.758 80.1888C196.654 52.386 220.16 30.7104 248.729 30.7104C279.254 30.7104 304 55.4561 304 85.9815Z" stroke="white" stroke-width="12"/>
<circle cx="154.304" cy="173.444" r="107.846" stroke="white" stroke-width="28"/>
<path d="M155 134.454V173.141C155 173.693 155.448 174.141 156 174.141H180.762" stroke="white" stroke-width="12" stroke-linecap="round"/>
<path d="M152.5 53.6869C152.5 55.0676 153.619 56.1869 155 56.1869C156.381 56.1869 157.5 55.0676 157.5 53.6869H152.5ZM141.667 14C141.667 21.3638 147.636 27.3333 155 27.3333C162.364 27.3333 168.333 21.3638 168.333 14C168.333 6.6362 162.364 0.666667 155 0.666667C147.636 0.666667 141.667 6.6362 141.667 14ZM157.5 53.6869V14H152.5V53.6869H157.5Z" fill="white"/>
<path d="M230.196 261.869L260.832 292.505M79.8037 261.869L48.4719 292.505" stroke="white" stroke-width="13" stroke-linecap="round"/>
</svg>
