<svg width="54" height="54" viewBox="0 0 54 54" fill="none" xmlns="http://www.w3.org/2000/svg">
<path d="M0 12C0 5.37258 5.37258 0 12 0H42C48.6274 0 54 5.37258 54 12V42C54 48.6274 48.6274 54 42 54H12C5.37258 54 0 48.6274 0 42V12Z" fill="white"/>
<path d="M26.9761 27.097C22.084 27.097 18.0179 22.9914 18.0179 18.1334C18.0179 13.1073 22.084 9 26.9778 9C32.0379 9 35.936 13.1056 35.936 18.1334C35.9321 19.3146 35.6981 20.4835 35.2472 21.5734C34.7963 22.6632 34.1374 23.6527 33.3081 24.4852C32.4789 25.3177 31.4955 25.977 30.4141 26.4254C29.3326 26.8738 28.1744 27.1026 27.0055 27.0987L26.9761 27.097ZM26.9761 14.2798C24.905 14.2798 23.3291 16.0386 23.3291 18.1351C23.3291 20.2281 24.905 21.8207 26.9778 21.8207C29.1338 21.8207 30.6266 20.2281 30.6266 18.1351C30.6283 16.0368 29.1338 14.2798 26.9761 14.2798ZM30.5434 34.5556L35.6052 39.4994C36.601 40.5861 36.601 42.1787 35.6052 43.1849C34.5281 44.2717 32.8674 44.2717 32.0379 43.1849L26.9778 38.1571L22.084 43.1849C21.587 43.6872 20.922 43.9374 20.1739 43.9374C19.5938 43.9374 18.9305 43.6854 18.3487 43.1849C17.3529 42.1787 17.3529 40.5861 18.3487 39.4976L23.4919 34.5538C21.6346 33.9978 19.8528 33.2107 18.1876 32.2105C16.9425 31.5403 16.6949 29.8655 17.3581 28.6072C18.1876 27.3507 19.6804 27.0165 21.0086 27.8547C22.8071 28.9639 24.8734 29.5507 26.9804 29.5507C29.0874 29.5507 31.1537 28.9639 32.9522 27.8547C34.2805 27.0165 35.8546 27.3507 36.601 28.6072C37.3491 29.8655 37.0149 31.5385 35.8529 32.2105C34.2787 33.2168 32.4535 33.9711 30.5452 34.5573L30.5434 34.5556Z" fill="#FF0000"/>
</svg>
