<svg width="116" height="141" viewBox="0 0 116 141" fill="none" xmlns="http://www.w3.org/2000/svg">
<path d="M0 10C0 4.47715 4.47715 0 10 0H57.575H81.6113C84.6177 0 87.4646 1.3526 89.3637 3.68327L99.2875 15.8625L112.89 32.4873C114.351 34.2739 115.15 36.5112 115.15 38.8196V70.5V131C115.15 136.523 110.673 141 105.15 141H10C4.47716 141 0 136.523 0 131V10Z" fill="white"/>
<path d="M12.9251 22.325H77.5501M12.9251 45.2375H38.7751M51.1126 45.2375H97.5251M12.9251 65.2125H66.3876M77.5501 65.2125H97.5251M12.9251 125.725H97.5251M12.9251 102.813H38.7751M51.1126 102.813L97.5251 102.812M12.925 82.8375H97.5251" stroke="#FF0000" stroke-width="4" stroke-linecap="round"/>
</svg>
