<svg width="112" height="138" viewBox="0 0 112 138" fill="none" xmlns="http://www.w3.org/2000/svg">
<path d="M0 9.99999C0 4.47714 4.47715 0 10 0H56H79.2488C82.2552 0 85.1021 1.3526 87.0012 3.68327L96.5714 15.4286L109.74 31.523C111.201 33.3096 112 35.5469 112 37.8553V68.5714V127.143C112 132.666 107.523 137.143 102 137.143H10C4.47716 137.143 0 132.666 0 127.143V9.99999Z" fill="white"/>
<path d="M76.5714 118.857L83.1591 127.979C83.5894 128.574 84.4618 128.615 84.9457 128.062L96 115.429M12.5714 21.7143H75.4286M12.5714 44H37.7143M49.7143 44H94.8571M12.5714 63.4286H64.5714M75.4286 63.4286H94.8571M12.5714 122.286H61.1428M12.5714 100H37.7143M49.7143 100L94.8571 100M12.5714 80.5714H94.8571" stroke="#FF0000" stroke-width="4" stroke-linecap="round"/>
</svg>
