<svg width="138" height="160" viewBox="0 0 138 160" fill="none" xmlns="http://www.w3.org/2000/svg">
<path d="M0 50C0 44.4772 4.47715 40 10 40H49H68.7488C71.7552 40 74.6021 41.3526 76.5012 43.6833L84.5 53.5L95.7396 67.2373C97.2014 69.0239 98 71.2612 98 73.5696V100V150C98 155.523 93.5229 160 88 160H10C4.47715 160 0 155.523 0 150V50Z" fill="white"/>
<path d="M67 144L72.7643 151.981C73.1407 152.502 73.9041 152.538 74.3275 152.054L84 141M11 59H66M11 78.5H33M43.5 78.5H83M11 95.5H56.5M66 95.5H83M11 147H53.5M11 127.5H33M43.5 127.5L83 127.5M11 110.5H83" stroke="#FF0000" stroke-width="4" stroke-linecap="round"/>
<path d="M20 30C20 24.4772 24.4772 20 30 20H69H88.7488C91.7552 20 94.6021 21.3526 96.5012 23.6833L104.5 33.5L115.74 47.2373C117.201 49.0239 118 51.2612 118 53.5696V80V130C118 135.523 113.523 140 108 140H30C24.4772 140 20 135.523 20 130V30Z" fill="white"/>
<path d="M87 124L92.7643 131.981C93.1407 132.502 93.9041 132.538 94.3275 132.054L104 121M31 39H86M31 58.5H53M63.5 58.5H103M31 75.5H76.5M86 75.5H103M31 127H73.5M31 107.5H53M63.5 107.5L103 107.5M31 90.5H103" stroke="#FF0000" stroke-width="4" stroke-linecap="round"/>
<path d="M40 10C40 4.47715 44.4772 0 50 0H89H108.749C111.755 0 114.602 1.3526 116.501 3.68327L124.5 13.5L135.74 27.2373C137.201 29.0239 138 31.2612 138 33.5696V60V110C138 115.523 133.523 120 128 120H50C44.4772 120 40 115.523 40 110V10Z" fill="white"/>
<path d="M107 104L112.764 111.981C113.141 112.502 113.904 112.538 114.328 112.054L124 101M51 19H106M51 38.5H73M83.5 38.5H123M51 55.5H96.5M106 55.5H123M51 107H93.5M51 87.5H73M83.5 87.5L123 87.5M51 70.5H123" stroke="#FF0000" stroke-width="4" stroke-linecap="round"/>
</svg>
