<svg width="53" height="54" viewBox="0 0 53 54" fill="none" xmlns="http://www.w3.org/2000/svg">
<path fill-rule="evenodd" clip-rule="evenodd" d="M11.8604 0C8.80876 0 5.8821 1.26428 3.72426 3.51472C1.56642 5.76515 0.354156 8.8174 0.354156 12V42C0.354156 45.1826 1.56642 48.2348 3.72426 50.4853C5.8821 52.7357 8.80876 54 11.8604 54H40.626C43.6777 54 46.6043 52.7357 48.7622 50.4853C50.92 48.2348 52.1323 45.1826 52.1323 42V12C52.1323 8.8174 50.92 5.76515 48.7622 3.51472C46.6043 1.26428 43.6777 0 40.626 0H11.8604ZM41.5811 21.165C42.0045 20.503 42.1584 19.6927 42.009 18.9124C41.8595 18.1321 41.419 17.4456 40.7842 17.004C40.1495 16.5624 39.3726 16.4019 38.6243 16.5577C37.8761 16.7136 37.2179 17.173 36.7945 17.835C35.7761 19.245 34.7089 20.595 33.4605 21.795C32.0136 23.187 30.5494 24.231 29.1227 24.849L29.0996 19.149C29.0172 18.4192 28.6808 17.7464 28.1543 17.2581C27.6278 16.7699 26.9478 16.5001 26.2432 16.5C24.6841 16.593 23.3667 17.793 23.3667 19.5V32.619C17.7631 30.999 14.737 25.329 14.737 19.5C14.737 18.7044 14.4339 17.9413 13.8944 17.3787C13.355 16.8161 12.6233 16.5 11.8604 16.5C11.0975 16.5 10.3658 16.8161 9.82637 17.3787C9.28691 17.9413 8.98384 18.7044 8.98384 19.5C8.98384 30.396 16.204 39 26.2432 39C27.0061 39 27.7378 38.6839 28.2773 38.1213C28.8167 37.5587 29.1198 36.7957 29.1198 36V31.311C32.9514 31.629 36.6679 34.452 38.0544 37.341C38.2159 37.7057 38.4461 38.0329 38.7312 38.3031C39.0163 38.5733 39.3505 38.781 39.7141 38.914C40.0776 39.0469 40.4631 39.1023 40.8475 39.0769C41.232 39.0515 41.6077 38.9459 41.9522 38.7662C42.2968 38.5865 42.6032 38.3365 42.8534 38.031C43.1035 37.7254 43.2923 37.3706 43.4085 36.9875C43.5246 36.6044 43.5658 36.2009 43.5296 35.8009C43.4934 35.401 43.3805 35.0126 43.1977 34.659C41.8227 31.788 39.2568 29.103 36.0983 27.351C36.5241 26.987 36.9459 26.605 37.364 26.205C38.949 24.6978 40.3638 23.0068 41.5811 21.165Z" fill="white"/>
</svg>
